<svg width="24" height="24" viewBox="0 0 24 24" fill="none" xmlns="http://www.w3.org/2000/svg">
<path fill-rule="evenodd" clip-rule="evenodd" d="M19.4032 4.04987C19.2803 3.99959 19.1487 3.97429 19.0159 3.97545C18.8831 3.9766 18.7519 4.00419 18.6299 4.05659C18.5079 4.109 18.3975 4.18519 18.3053 4.2807L18.2931 4.29309L10 12.5862V14H11.4138L19.7069 5.70688L19.7193 5.6947C19.8148 5.60245 19.891 5.4921 19.9434 5.3701C19.9958 5.2481 20.0234 5.11688 20.0245 4.9841C20.0257 4.85132 20.0004 4.71964 19.9501 4.59674C19.8998 4.47385 19.8256 4.36219 19.7317 4.2683C19.6378 4.17441 19.5261 4.10016 19.4032 4.04987ZM18.9985 1.97552C19.3968 1.97206 19.7919 2.04797 20.1606 2.19881C20.5293 2.34965 20.8642 2.57241 21.1459 2.85409C21.4276 3.13577 21.6503 3.47072 21.8012 3.83941C21.952 4.2081 22.0279 4.60314 22.0245 5.00148C22.021 5.39981 21.9382 5.79347 21.781 6.15949C21.6251 6.52256 21.3989 6.8512 21.1156 7.12658L12.5351 15.7071C12.3476 15.8946 12.0932 16 11.828 16H9C8.44772 16 8 15.5523 8 15V12.172C8 11.9068 8.10536 11.6524 8.29289 11.4649L16.8734 2.8844C17.1488 2.60108 17.4774 2.37494 17.8405 2.21897C18.2065 2.06174 18.6002 1.97898 18.9985 1.97552ZM3.87868 4.87866C4.44129 4.31605 5.20435 3.99998 6 3.99998H11C11.5523 3.99998 12 4.4477 12 4.99998C12 5.55227 11.5523 5.99998 11 5.99998H6C5.73478 5.99998 5.48043 6.10534 5.29289 6.29288C5.10536 6.48041 5 6.73477 5 6.99998V18C5 18.2652 5.10536 18.5196 5.29289 18.7071C5.48043 18.8946 5.73478 19 6 19H17C17.2652 19 17.5196 18.8946 17.7071 18.7071C17.8946 18.5196 18 18.2652 18 18V13C18 12.4477 18.4477 12 19 12C19.5523 12 20 12.4477 20 13V18C20 18.7956 19.6839 19.5587 19.1213 20.1213C18.5587 20.6839 17.7957 21 17 21H6C5.20435 21 4.44129 20.6839 3.87868 20.1213C3.31607 19.5587 3 18.7956 3 18V6.99998C3 6.20433 3.31607 5.44127 3.87868 4.87866Z" fill="#93C5FD"/>
</svg>
