<svg width="24" height="24" viewBox="0 0 24 24" fill="none" xmlns="http://www.w3.org/2000/svg">
<path fill-rule="evenodd" clip-rule="evenodd" d="M5 5C4.73478 5 4.48043 5.10536 4.29289 5.29289C4.10536 5.48043 4 5.73478 4 6V14C4 14.2652 4.10536 14.5196 4.29289 14.7071C4.48043 14.8946 4.73478 15 5 15H9C9.55228 15 10 15.4477 10 16V18.5858L13.2929 15.2929C13.4804 15.1054 13.7348 15 14 15H19C19.2652 15 19.5196 14.8946 19.7071 14.7071C19.8946 14.5196 20 14.2652 20 14V6C20 5.73478 19.8946 5.48043 19.7071 5.29289C19.5196 5.10536 19.2652 5 19 5H5ZM2.87868 3.87868C3.44129 3.31607 4.20435 3 5 3H19C19.7957 3 20.5587 3.31607 21.1213 3.87868C21.6839 4.44129 22 5.20435 22 6V14C22 14.7957 21.6839 15.5587 21.1213 16.1213C20.5587 16.6839 19.7957 17 19 17H14.4142L9.70711 21.7071C9.42111 21.9931 8.99099 22.0787 8.61732 21.9239C8.24364 21.7691 8 21.4045 8 21V17H5C4.20435 17 3.44129 16.6839 2.87868 16.1213C2.31607 15.5587 2 14.7956 2 14V6C2 5.20435 2.31607 4.44129 2.87868 3.87868ZM7 10C7 9.44772 7.44772 9 8 9H8.01C8.56228 9 9.01 9.44772 9.01 10C9.01 10.5523 8.56228 11 8.01 11H8C7.44772 11 7 10.5523 7 10ZM11 10C11 9.44772 11.4477 9 12 9H12.01C12.5623 9 13.01 9.44772 13.01 10C13.01 10.5523 12.5623 11 12.01 11H12C11.4477 11 11 10.5523 11 10ZM15 10C15 9.44772 15.4477 9 16 9H16.01C16.5623 9 17.01 9.44772 17.01 10C17.01 10.5523 16.5623 11 16.01 11H16C15.4477 11 15 10.5523 15 10Z" fill="black"/>
</svg>
