<svg width="20" height="20" viewBox="0 0 24 24" fill="none" xmlns="http://www.w3.org/2000/svg">
    <path fill-rule="evenodd" clip-rule="evenodd" d="M6 5C5.46957 5 4.96086 5.21071 4.58579 5.58579C4.21071 5.96086 4 6.46957 4 7V17C4 17.5304 4.21071 18.0391 4.58579 18.4142C4.96086 18.7893 5.46957 19 6 19H10C10.5304 19 11.0391 18.7893 11.4142 18.4142C11.7893 18.0391 12 17.5304 12 17V16C12 15.4477 12.4477 15 13 15C13.5523 15 14 15.4477 14 16V17C14 18.0609 13.5786 19.0783 12.8284 19.8284C12.0783 20.5786 11.0609 21 10 21H6C4.93913 21 3.92172 20.5786 3.17157 19.8284C2.42143 19.0783 2 18.0609 2 17V7C2 5.93913 2.42143 4.92172 3.17157 4.17157C3.92172 3.42143 4.93913 3 6 3H10C11.0609 3 12.0783 3.42143 12.8284 4.17157C13.5786 4.92172 14 5.93913 14 7V8C14 8.55228 13.5523 9 13 9C12.4477 9 12 8.55228 12 8V7C12 6.46957 11.7893 5.96086 11.4142 5.58579C11.0391 5.21071 10.5304 5 10 5H6ZM16.2929 7.29289C16.6834 6.90237 17.3166 6.90237 17.7071 7.29289L21.7071 11.2929C22.0976 11.6834 22.0976 12.3166 21.7071 12.7071L17.7071 16.7071C17.3166 17.0976 16.6834 17.0976 16.2929 16.7071C15.9024 16.3166 15.9024 15.6834 16.2929 15.2929L18.5858 13H7C6.44772 13 6 12.5523 6 12C6 11.4477 6.44772 11 7 11H18.5858L16.2929 8.70711C15.9024 8.31658 15.9024 7.68342 16.2929 7.29289Z" fill="#000000"/>
</svg>
