<svg width="24" height="24" viewBox="0 0 24 24" fill="none" xmlns="http://www.w3.org/2000/svg">
<path fill-rule="evenodd" clip-rule="evenodd" d="M5.39526 4.41861C6.06256 4.14221 6.77776 3.99994 7.50004 3.99994C8.22231 3.99994 8.93752 4.14221 9.60481 4.41861C10.2721 4.69502 10.8784 5.10015 11.3891 5.61088M12 6.22177L3.61093 5.61088L5.39526 4.41861L11.3891 5.61088M12 6.22177L12.6109 5.61087C13.6424 4.57942 15.0413 3.99995 16.5 3.99995C17.9587 3.99995 19.3577 4.57942 20.3891 5.61087C21.4206 6.64233 22 8.04128 22 9.49998C22 10.9587 21.4206 12.3577 20.3891 13.3891L12.7071 21.0711C12.5196 21.2586 12.2652 21.364 12 21.364C11.7348 21.364 11.4804 21.2586 11.2929 21.0711L3.61094 13.3891C3.10021 12.8784 2.69507 12.2721 2.41867 11.6048C2.14226 10.9375 2 10.2223 2 9.49998C2 8.77771 2.14226 8.0625 2.41867 7.39521C2.69507 6.72792 3.1002 6.1216 3.61093 5.61088M5.39526 4.41861C4.72797 4.69501 4.12165 5.10015 3.61093 5.61088L5.39526 4.41861ZM7.50004 5.99994C7.04041 5.99994 6.58528 6.09047 6.16064 6.26637C5.73599 6.44226 5.35015 6.70007 5.02515 7.02508C4.70014 7.35009 4.44232 7.73594 4.26643 8.16058C4.09053 8.58522 4 9.04035 4 9.49998C4 9.95961 4.09053 10.4148 4.26643 10.8394C4.44232 11.264 4.70013 11.6499 5.02514 11.9749L12 18.9498L18.9749 11.9749C19.6313 11.3185 20 10.4283 20 9.49998C20 8.57172 19.6313 7.68147 18.9749 7.02509C18.3185 6.3687 17.4283 5.99995 16.5 5.99995C15.5717 5.99995 14.6815 6.36871 14.0251 7.02509L12.7071 8.34309C12.5196 8.53062 12.2652 8.63598 12 8.63598C11.7348 8.63598 11.4804 8.53062 11.2929 8.34309L9.97493 7.02509C9.64993 6.70008 9.26408 6.44226 8.83944 6.26637C8.4148 6.09047 7.95967 5.99994 7.50004 5.99994Z" fill="black"/>
</svg>
