<svg width="24" height="24" viewBox="0 0 24 24" fill="none" xmlns="http://www.w3.org/2000/svg">
<path d="M13.0728 3.06363C12.973 2.86457 12.8199 2.69719 12.6304 2.58022C12.4409 2.46325 12.2227 2.40131 12 2.40131C11.7773 2.40131 11.5591 2.46325 11.3696 2.58022C11.1802 2.69719 11.027 2.86457 10.9272 3.06363L2.52723 19.8636C2.423 20.0719 2.38165 20.306 2.40822 20.5374C2.43479 20.7689 2.52813 20.9875 2.67686 21.1668C2.82559 21.346 3.02327 21.4781 3.2458 21.547C3.46832 21.6158 3.70607 21.6184 3.93003 21.5544L9.93003 19.8396C10.1808 19.7679 10.4013 19.6164 10.5583 19.4081C10.7153 19.1998 10.8001 18.946 10.8 18.6852V13.2C10.8 12.8817 10.9264 12.5765 11.1515 12.3515C11.3765 12.1264 11.6817 12 12 12C12.3183 12 12.6235 12.1264 12.8485 12.3515C13.0736 12.5765 13.2 12.8817 13.2 13.2V18.6852C13.1999 18.946 13.2847 19.1998 13.4417 19.4081C13.5987 19.6164 13.8192 19.7679 14.07 19.8396L20.07 21.5532C20.2939 21.6173 20.5316 21.6149 20.7541 21.5462C20.9767 21.4776 21.1744 21.3456 21.3233 21.1665C21.4721 20.9874 21.5656 20.7688 21.5924 20.5375C21.6192 20.3061 21.578 20.072 21.474 19.8636L13.074 3.06363H13.0728Z" fill="white"/>
</svg>
